<svg width="20" height="19" viewBox="0 0 20 19" fill="none" xmlns="http://www.w3.org/2000/svg">
<path d="M10 18.7282C15.0271 18.7282 19.1 14.5951 19.1 9.49966C19.1 4.40421 15.0271 0.271094 10 0.271094C4.97288 0.271094 0.9 4.40421 0.9 9.49966C0.9 14.5951 4.97288 18.7282 10 18.7282Z" stroke="#5C5C5C" stroke-width="0.2"/>
<path d="M10 10.304L7.73162 7.61973C7.56425 7.42168 7.29289 7.42168 7.12553 7.61973C6.95816 7.81778 6.95816 8.13889 7.12553 8.33694L9.69695 11.3798C9.86432 11.5778 10.1357 11.5778 10.303 11.3798L12.8745 8.33694C13.0418 8.13889 13.0418 7.81778 12.8745 7.61973C12.7071 7.42168 12.4358 7.42168 12.2684 7.61973L10 10.304Z" fill="#565656"/>
<mask id="mask0_1076_1121" style="mask-type:luminance" maskUnits="userSpaceOnUse" x="7" y="7" width="6" height="5">
<path d="M10 10.304L7.73162 7.61973C7.56425 7.42168 7.29289 7.42168 7.12553 7.61973C6.95816 7.81778 6.95816 8.13889 7.12553 8.33694L9.69695 11.3798C9.86432 11.5778 10.1357 11.5778 10.303 11.3798L12.8745 8.33694C13.0418 8.13889 13.0418 7.81778 12.8745 7.61973C12.7071 7.42168 12.4358 7.42168 12.2684 7.61973L10 10.304Z" fill="white"/>
</mask>
<g mask="url(#mask0_1076_1121)">
</g>
</svg>
