<svg width="70" height="70" viewBox="0 0 70 70" fill="none" xmlns="http://www.w3.org/2000/svg">
<circle cx="35" cy="35" r="35" fill="#FFE0EB"/>
<path d="M35.8787 35.8783V20C27.3736 20.4461 20.4466 27.3731 20.0005 35.8783H35.8787ZM32.3633 33.2416H30.6055V31.4839H32.3633V33.2416ZM27.09 27.9684H28.8478V29.7262H27.09V27.9684ZM31.4844 27.6045L32.7272 28.8473L27.9689 33.6056L26.7261 32.3628L31.4844 27.6045Z" fill="#FF82AC"/>
<path d="M35.8787 37.6357H25.3657C25.794 43.2368 30.2776 47.7204 35.8787 48.1487V37.6357H35.8787Z" fill="#FF82AC"/>
<path d="M37.6362 23.5156C37.6362 23.7044 37.6362 50.2064 37.6362 49.9989C44.4956 49.5434 49.999 43.6424 49.999 36.6695C49.999 29.696 44.4973 23.9696 37.6362 23.5156ZM42.9095 35.8784C44.3633 35.8784 45.5461 37.0611 45.5461 38.515C45.5461 39.6593 44.8091 40.6257 43.7883 40.9897V42.9094H42.0306V40.9897C41.0098 40.6257 40.2728 39.6593 40.2728 38.515H42.0306C42.0306 38.9999 42.4246 39.3939 42.9095 39.3939C43.3944 39.3939 43.7883 38.9999 43.7883 38.515C43.7883 38.0301 43.3944 37.6361 42.9095 37.6361C41.4556 37.6361 40.2728 36.4534 40.2728 34.9995C40.2728 33.8552 41.0098 32.8888 42.0306 32.5248V30.6052H43.7883V32.5248C44.8091 32.8888 45.5461 33.8552 45.5461 34.9995H43.7883C43.7883 34.5146 43.3944 34.1207 42.9095 34.1207C42.4246 34.1207 42.0306 34.5146 42.0306 34.9995C42.0306 35.4844 42.4246 35.8784 42.9095 35.8784Z" fill="#FF82AC"/>
</svg>
