<svg width="60" height="60" viewBox="0 0 60 60" fill="none" xmlns="http://www.w3.org/2000/svg">
<path opacity="0.3" d="M0 23C0 10.2975 10.2975 0 23 0H37C49.7025 0 60 10.2975 60 23V37C60 49.7025 49.7025 60 37 60H23C10.2975 60 0 49.7025 0 37V23Z" fill="#FF9066"/>
<path opacity="0.78" fill-rule="evenodd" clip-rule="evenodd" d="M28.6312 23.8074C28.6512 23.5469 28.8684 23.3457 29.1297 23.3457H29.5475C29.8044 23.3457 30.0195 23.5404 30.045 23.796L30.6667 30.0124L35.0814 32.5351C35.2372 32.6241 35.3333 32.7898 35.3333 32.9692V33.3577C35.3333 33.6874 35.0198 33.9269 34.7018 33.8401L28.3987 32.1211C28.1673 32.058 28.0133 31.8395 28.0317 31.6004L28.6312 23.8074Z" fill="#FF9066"/>
<path opacity="0.901274" fill-rule="evenodd" clip-rule="evenodd" d="M22.7218 14.9836C22.4577 14.6689 21.9477 14.7893 21.8524 15.189L20.2189 22.0371C20.1412 22.3628 20.3993 22.6713 20.7336 22.6523L27.7783 22.2531C28.1892 22.2298 28.3976 21.7478 28.133 21.4325L26.3316 19.2857C27.4965 18.8876 28.7317 18.6797 30 18.6797C36.2592 18.6797 41.3333 23.7538 41.3333 30.0131C41.3333 36.2723 36.2592 41.3464 30 41.3464C23.7408 41.3464 18.6667 36.2723 18.6667 30.0131C18.6667 28.9623 18.809 27.9332 19.0864 26.944L16.5188 26.2238C16.1808 27.429 16 28.6999 16 30.0131C16 37.7451 22.268 44.0131 30 44.0131C37.732 44.0131 44 37.7451 44 30.0131C44 22.2811 37.732 16.0131 30 16.0131C28.0551 16.0131 26.2029 16.4096 24.5197 17.1263L22.7218 14.9836Z" fill="#FF9066"/>
</svg>
