<svg width="200" height="200" viewBox="0 0 200 200" fill="none" xmlns="http://www.w3.org/2000/svg">
<mask id="mask0_746_2" style="mask-type:luminance" maskUnits="userSpaceOnUse" x="0" y="0" width="200" height="200">
<path d="M0 0H200V200H0V0Z" fill="white"/>
</mask>
<g mask="url(#mask0_746_2)">
<path d="M165.175 158.818C165.175 160.92 135.996 162.624 100.002 162.624C64.0072 162.624 34.8281 160.92 34.8281 158.818C34.8281 156.716 64.0072 155.012 100.002 155.012C135.996 155.012 165.175 156.716 165.175 158.818Z" fill="#F5F5F5"/>
<mask id="mask1_746_2" style="mask-type:luminance" maskUnits="userSpaceOnUse" x="0" y="0" width="201" height="201">
<path d="M0.742188 0.370605H200.742V200.371H0.742188V0.370605Z" fill="white"/>
</mask>
<g mask="url(#mask1_746_2)">
<path d="M128.191 101.483C129.087 101.828 129.63 102.037 129.63 102.037" stroke="#9FBDFF" stroke-width="8" stroke-linecap="round"/>
<path d="M100.594 106.228C103.707 107.428 108.434 109.25 111.659 110.493" stroke="#2D56B3" stroke-width="8" stroke-linecap="round"/>
</g>
<mask id="mask2_746_2" style="mask-type:luminance" maskUnits="userSpaceOnUse" x="-5" y="1" width="201" height="201">
<path d="M-4.07227 1.85205H195.928V201.852H-4.07227V1.85205Z" fill="white"/>
</mask>
<g mask="url(#mask2_746_2)">
<path d="M84.4453 102.963C84.4453 102.963 87.0253 103.958 90.2194 105.189" stroke="#2D56B3" stroke-width="8" stroke-linecap="round"/>
<path d="M112.963 101.667C112.963 101.667 113.411 101.84 114.164 102.13" stroke="#2D56B3" stroke-width="8" stroke-linecap="round"/>
</g>
<path d="M32.4941 71.1216L109.014 83.6286L119.508 92.4842L32.4941 71.1216Z" fill="#407BFF"/>
<g opacity="0.6">
<path d="M32.4941 71.1216L109.014 83.6286L119.508 92.4842L32.4941 71.1216Z" fill="white"/>
</g>
<path d="M32.4941 71.1216L109.014 83.6286L105.568 97.159L32.4941 71.1216Z" fill="#407BFF"/>
<g opacity="0.2">
<path d="M32.4941 71.1216L109.014 83.6286L105.568 97.159L32.4941 71.1216Z" fill="black"/>
</g>
<path d="M103.911 51.4242L108.361 72.274C108.602 73.4031 107.875 74.5242 106.746 74.7651L67.055 83.2353C65.9259 83.4762 64.8048 82.7495 64.5639 81.6205L60.1144 60.7707C59.9885 60.1805 60.1276 59.591 60.4492 59.1288C60.7444 58.7099 61.1905 58.3945 61.7294 58.2795L101.42 49.8094C101.959 49.6944 102.495 49.7999 102.936 50.062C103.418 50.3525 103.786 50.834 103.911 51.4242Z" fill="#407BFF"/>
<g opacity="0.4">
<path d="M103.911 51.4242L108.361 72.274C108.602 73.4031 107.875 74.5242 106.746 74.7651L67.055 83.2353C65.9259 83.4762 64.8048 82.7495 64.5639 81.6205L60.1144 60.7707C59.9885 60.1805 60.1276 59.591 60.4492 59.1288C60.7444 58.7099 61.1905 58.3945 61.7294 58.2795L101.42 49.8094C101.959 49.6944 102.495 49.7999 102.936 50.062C103.418 50.3525 103.786 50.834 103.911 51.4242Z" fill="black"/>
</g>
<path d="M102.936 50.062L89.6727 66.3418C87.1398 69.451 82.784 70.3805 79.2026 68.5762L60.4492 59.1288C60.7444 58.7099 61.1905 58.3945 61.7294 58.2795L101.421 49.8094C101.959 49.6944 102.495 49.7999 102.936 50.062Z" fill="#407BFF"/>
<path d="M32.4941 71.1216L95.399 87.8039L105.568 97.159L32.4941 71.1216Z" fill="#407BFF"/>
<g opacity="0.6">
<path d="M32.4941 71.1216L95.399 87.8039L105.568 97.159L32.4941 71.1216Z" fill="white"/>
</g>
<path d="M32.4941 71.1216L95.3988 87.8039L82.3617 100.6L32.4941 71.1216Z" fill="#407BFF"/>
<path d="M145.848 76.7121C145.61 78.6527 145.348 80.5433 145.058 82.4388C144.767 84.3303 144.457 86.2096 144.085 88.0867L143.941 88.7923C143.915 88.9161 143.871 89.1175 143.835 89.2524C143.798 89.3927 143.76 89.5382 143.722 89.6593C143.572 90.1679 143.414 90.5825 143.258 90.9868C142.944 91.7899 142.617 92.4966 142.286 93.188C141.619 94.5579 140.929 95.8059 140.2 96.9791L139.648 95.5548C140.222 94.0924 140.804 92.6202 141.356 91.1508C141.631 90.4172 141.899 89.6713 142.137 88.9376C142.254 88.5728 142.362 88.1984 142.445 87.8697C142.467 87.7845 142.481 87.7121 142.498 87.6377C142.515 87.5558 142.517 87.5328 142.535 87.4316L142.646 86.7718C142.935 84.9899 143.199 83.1354 143.455 81.277L144.215 75.6878L145.848 76.7121Z" fill="#E4897B"/>
<path d="M144.187 97.0607L142.8 97.6038L144.095 99.1681C144.095 99.1681 145.106 98.6615 145.262 97.8338L144.187 97.0607Z" fill="#E4897B"/>
<path d="M141.346 99.4767L142.942 100.518L144.762 100.063L143.328 98.6388L141.346 99.4767Z" fill="#E4897B"/>
<path d="M144.116 74.3782C144.856 76.1484 142.641 81.5512 142.641 81.5512L138.972 80.5223C138.972 80.5223 139.901 77.8535 140.65 75.4278C141.436 72.8863 143.359 72.5681 144.116 74.3782Z" fill="#407BFF"/>
<g opacity="0.4">
<path d="M144.116 74.3782C144.856 76.1484 142.641 81.5512 142.641 81.5512L138.972 80.5223C138.972 80.5223 139.901 77.8535 140.65 75.4278C141.436 72.8863 143.359 72.5681 144.116 74.3782Z" fill="black"/>
</g>
<path d="M140.797 77.0002L139.945 77.6553C139.603 80.1103 139.244 82.472 139.148 83.1024C139.851 81.2509 140.608 78.5486 140.797 77.0002Z" fill="#407BFF"/>
<g opacity="0.6">
<path d="M140.797 77.0002L139.945 77.6553C139.603 80.1103 139.244 82.472 139.148 83.1024C139.851 81.2509 140.608 78.5486 140.797 77.0002Z" fill="black"/>
</g>
<path d="M143.915 156.728C143.661 156.728 143.417 156.689 143.322 156.565C143.282 156.513 143.25 156.422 143.324 156.287C143.363 156.217 143.425 156.171 143.507 156.151C143.87 156.068 144.55 156.533 144.579 156.553C144.598 156.566 144.607 156.589 144.603 156.612C144.599 156.635 144.582 156.653 144.559 156.658C144.433 156.689 144.17 156.728 143.915 156.728ZM143.606 156.257C143.581 156.257 143.556 156.26 143.534 156.265C143.484 156.277 143.449 156.303 143.426 156.344C143.373 156.44 143.405 156.481 143.415 156.494C143.521 156.633 144.025 156.635 144.394 156.573C144.181 156.442 143.831 156.257 143.606 156.257Z" fill="#407BFF"/>
<path d="M144.546 156.66C144.536 156.66 144.527 156.658 144.518 156.653C144.262 156.514 143.768 155.974 143.82 155.698C143.83 155.648 143.867 155.562 144.006 155.544C144.095 155.534 144.181 155.558 144.256 155.619C144.542 155.854 144.602 156.566 144.604 156.597C144.606 156.618 144.596 156.639 144.578 156.65C144.568 156.657 144.557 156.66 144.546 156.66ZM144.047 155.659C144.039 155.659 144.03 155.659 144.021 155.661C143.945 155.67 143.938 155.705 143.935 155.72C143.905 155.883 144.219 156.291 144.473 156.484C144.444 156.276 144.366 155.861 144.181 155.71C144.139 155.676 144.095 155.659 144.047 155.659Z" fill="#407BFF"/>
<path d="M129.087 156.728C128.77 156.728 128.465 156.685 128.362 156.542C128.326 156.492 128.297 156.407 128.366 156.287C128.405 156.219 128.468 156.173 128.552 156.15C128.961 156.04 129.826 156.53 129.862 156.551C129.883 156.563 129.895 156.587 129.891 156.611C129.887 156.635 129.869 156.654 129.845 156.659C129.687 156.69 129.382 156.728 129.087 156.728ZM128.696 156.249C128.655 156.249 128.617 156.253 128.583 156.263C128.529 156.277 128.491 156.304 128.468 156.344C128.426 156.417 128.442 156.453 128.457 156.474C128.568 156.628 129.192 156.636 129.655 156.572C129.426 156.455 128.984 156.249 128.696 156.249Z" fill="#407BFF"/>
<path d="M129.833 156.66C129.825 156.66 129.816 156.658 129.809 156.655C129.511 156.521 128.92 155.987 128.965 155.708C128.976 155.642 129.022 155.561 129.183 155.544C129.303 155.533 129.412 155.566 129.508 155.644C129.822 155.902 129.888 156.568 129.891 156.596C129.893 156.616 129.883 156.637 129.867 156.649C129.857 156.656 129.845 156.66 129.833 156.66ZM129.23 155.659C129.219 155.659 129.207 155.66 129.195 155.661C129.09 155.671 129.083 155.713 129.081 155.726C129.054 155.894 129.455 156.314 129.759 156.496C129.728 156.302 129.639 155.904 129.433 155.735C129.371 155.684 129.305 155.659 129.23 155.659Z" fill="#407BFF"/>
<path d="M132.547 156.601H130.078L129.832 150.883H132.301L132.547 156.601Z" fill="#E4897B"/>
<path d="M147.375 156.601H144.905L143.664 150.883H146.134L147.375 156.601Z" fill="#E4897B"/>
<path d="M144.73 156.315H147.504C147.605 156.315 147.693 156.386 147.715 156.484L148.202 158.679C148.253 158.907 148.074 159.122 147.841 159.118C146.872 159.102 146.402 159.045 145.182 159.045C144.431 159.045 142.885 159.123 141.848 159.123C140.835 159.123 140.677 158.098 141.101 158.005C143.004 157.589 143.72 157.015 144.329 156.467C144.439 156.369 144.583 156.315 144.73 156.315Z" fill="#263238"/>
<path d="M130.095 156.315H132.791C132.892 156.315 132.98 156.386 133.002 156.484L133.49 158.679C133.54 158.907 133.367 159.122 133.134 159.118C132.161 159.102 130.756 159.045 129.533 159.045C128.104 159.045 126.869 159.123 125.192 159.123C124.179 159.123 123.897 158.098 124.321 158.005C126.253 157.582 127.831 157.537 129.5 156.508C129.681 156.396 129.882 156.315 130.095 156.315Z" fill="#263238"/>
<path d="M129.834 150.884L129.96 153.832H132.431L132.304 150.884H129.834Z" fill="#CE6F64"/>
<path d="M146.134 150.884H143.664L144.305 153.832H146.776L146.134 150.884Z" fill="#CE6F64"/>
<path d="M132.076 93.7739C132.076 93.7739 134.879 112.646 136.417 119.716C138.102 127.458 143.153 153.261 143.153 153.261H147.676C147.676 153.261 144.787 128.083 143.825 120.417C142.782 112.098 140.599 93.7739 140.599 93.7739H132.076Z" fill="#407BFF"/>
<g opacity="0.5">
<path d="M132.076 93.7739C132.076 93.7739 134.879 112.646 136.417 119.716C138.102 127.458 143.153 153.261 143.153 153.261H147.676C147.676 153.261 144.787 128.083 143.825 120.417C142.782 112.098 140.599 93.7739 140.599 93.7739H132.076Z" fill="white"/>
</g>
<path d="M142.432 151.595C142.413 151.595 142.899 153.331 142.899 153.331H147.988L147.894 151.781L142.432 151.595Z" fill="#407BFF"/>
<g opacity="0.1">
<path d="M142.432 151.595C142.413 151.595 142.899 153.331 142.899 153.331H147.988L147.894 151.781L142.432 151.595Z" fill="black"/>
</g>
<path d="M133.849 100.498C137.089 101.133 136.746 113.217 136.356 119.432C135.422 115.039 134.054 106.585 133.119 100.585C133.334 100.478 133.576 100.444 133.849 100.498Z" fill="#407BFF"/>
<g opacity="0.4">
<path d="M133.849 100.498C137.089 101.133 136.746 113.217 136.356 119.432C135.422 115.039 134.054 106.585 133.119 100.585C133.334 100.478 133.576 100.444 133.849 100.498Z" fill="white"/>
</g>
<path d="M127.392 93.2183C127.392 93.2183 127.052 112.237 127.32 119.767C127.6 127.6 129.039 153.261 129.039 153.261H133.222C133.222 153.261 134.672 128.058 134.858 120.365C135.061 111.979 136.074 93.7738 136.074 93.7738L127.392 93.2183Z" fill="#407BFF"/>
<g opacity="0.5">
<path d="M127.392 93.2183C127.392 93.2183 127.052 112.237 127.32 119.767C127.6 127.6 129.039 153.261 129.039 153.261H133.222C133.222 153.261 134.672 128.058 134.858 120.365C135.061 111.979 136.074 93.7738 136.074 93.7738L127.392 93.2183Z" fill="white"/>
</g>
<path d="M128.233 151.595C128.214 151.595 128.469 153.331 128.469 153.331H133.558L133.696 151.781L128.233 151.595Z" fill="#407BFF"/>
<g opacity="0.1">
<path d="M128.233 151.595C128.214 151.595 128.469 153.331 128.469 153.331H133.558L133.696 151.781L128.233 151.595Z" fill="black"/>
</g>
<path d="M136.512 65.8667C136.096 67.5909 135.613 70.7646 136.745 71.9878C136.745 71.9878 136.197 73.7304 133.043 73.5677C129.575 73.3888 131.47 71.716 131.47 71.716C133.384 71.3499 133.404 69.9066 133.139 68.5364L136.512 65.8667Z" fill="#E4897B"/>
<path d="M137.428 73.0695C137.729 72.2914 138.062 71.4004 137.48 71.0902C136.84 70.749 133.266 70.2685 131.999 70.7973C130.732 71.3262 131.003 72.9442 131.003 72.9442L137.428 73.0695Z" fill="#263238"/>
<path d="M132.638 72.843C132.638 72.843 130.238 74.1971 127.059 89.0948C129.538 90.4779 134.079 93.012 135.285 93.685C135.863 92.1681 137.613 84.1708 141.287 77.5537C141.287 77.5537 139.994 76.4199 138.677 75.5906C137.647 74.942 136.139 74.0517 135.18 73.6395C133.916 73.0961 132.638 72.843 132.638 72.843Z" fill="#407BFF"/>
<g opacity="0.4">
<path d="M132.638 72.843C132.638 72.843 130.238 74.1971 127.059 89.0948C129.538 90.4779 134.079 93.012 135.285 93.685C135.863 92.1681 137.613 84.1708 141.287 77.5537C141.287 77.5537 139.994 76.4199 138.677 75.5906C137.647 74.942 136.139 74.0517 135.18 73.6395C133.916 73.0961 132.638 72.843 132.638 72.843Z" fill="black"/>
</g>
<path d="M127.259 76.2257C127.004 76.6251 126.731 77.1076 126.44 77.6862C127.427 77.7708 128.686 77.8015 129.917 77.6154L127.259 76.2257Z" fill="#407BFF"/>
<g opacity="0.6">
<path d="M127.259 76.2257C127.004 76.6251 126.731 77.1076 126.44 77.6862C127.427 77.7708 128.686 77.8015 129.917 77.6154L127.259 76.2257Z" fill="black"/>
</g>
<path d="M130.19 63.2442C130.262 63.3992 130.261 63.5718 130.188 63.6297C130.114 63.6876 129.996 63.6089 129.924 63.454C129.851 63.2991 129.852 63.1266 129.926 63.0687C130 63.0108 130.118 63.0893 130.19 63.2442Z" fill="#263238"/>
<path d="M129.529 63.7202C129.529 63.7202 129.691 64.8107 129.609 65.4604C129.93 65.5597 130.216 65.1787 130.216 65.1787L129.529 63.7202Z" fill="#DE5753"/>
<path d="M131.135 62.084C131.111 62.0953 131.081 62.0996 131.048 62.0944C130.562 62.0137 130.291 62.1959 130.279 62.2038C130.239 62.2319 130.167 62.2303 130.122 62.1995C130.076 62.1687 130.072 62.1209 130.112 62.0923C130.126 62.0822 130.471 61.8456 131.081 61.9465C131.142 61.9566 131.184 61.9978 131.175 62.0386C131.171 62.058 131.156 62.0738 131.135 62.084Z" fill="#263238"/>
<path d="M133.276 60.4822C131.251 60.8516 128.243 58.5646 133.018 56.4354C133.018 56.4354 133.002 57.4703 134.654 57.0119C136.307 56.5536 137.633 59.6873 133.276 60.4822Z" fill="#263238"/>
<path d="M135.019 62.0767C135.862 63.9728 136.433 65.0366 136.166 66.4912C135.764 68.6792 133.513 69.0941 132.229 67.5063C131.073 66.0772 129.89 63.2165 130.964 61.4917C132.023 59.7925 134.177 60.1806 135.019 62.0767Z" fill="#E4897B"/>
<path d="M133.327 59.1018C134.421 58.7674 135.61 57.8771 136.061 58.8166C136.613 59.9651 136.892 58.4442 137.727 60.1386C138.273 61.2447 139.018 65.7659 138.056 66.7362C136.609 68.1944 134.832 65.0907 133.806 63.5768C133.202 62.6843 131.182 59.7578 133.327 59.1018Z" fill="#263238"/>
<path d="M131.38 60.4453C131.137 60.9581 132.498 64.1346 133.885 62.8086C135.482 61.2825 131.38 60.4453 131.38 60.4453Z" fill="#263238"/>
<path d="M131.985 59.8523C131.542 60.3019 129.919 60.6085 129.245 59.5867C129.245 59.5867 130.879 60.0726 131.985 59.8523Z" fill="#263238"/>
<path d="M133.096 63.513C133.257 64.0255 133.23 64.5811 133.101 64.9901C132.906 65.6054 132.415 65.4737 132.139 64.9345C131.89 64.4494 131.692 63.5445 132.045 63.104C132.394 62.6699 132.912 62.9268 133.096 63.513Z" fill="#E4897B"/>
<path d="M137.888 60.7868C138.026 60.3548 138.34 59.3733 137.678 58.1595C137.678 58.1595 139.84 59.547 137.888 60.7868Z" fill="#263238"/>
<path d="M139.722 60.0566C139.44 60.0602 138.799 60.0674 138.37 60.4954C138.37 60.4954 138.373 59.4462 139.722 60.0566Z" fill="#263238"/>
<path d="M130.037 79.4032C128.937 80.979 127.802 82.426 126.575 83.834C125.961 84.5318 125.33 85.2173 124.662 85.8693C123.994 86.5229 123.3 87.1566 122.519 87.7266C122.325 87.87 122.121 88.0078 121.914 88.1425C121.65 88.3078 121.408 88.4253 121.187 88.5221C120.741 88.7196 120.321 88.8548 119.902 88.9896C119.069 89.2554 118.244 89.4601 117.42 89.6525C115.77 90.0276 114.123 90.3122 112.451 90.5103L112.102 88.7014L116.777 86.887C117.549 86.5887 118.317 86.276 119.056 85.9551C119.423 85.7939 119.785 85.618 120.101 85.4462C120.262 85.3593 120.395 85.2731 120.491 85.2003C120.638 85.0871 120.786 84.9715 120.934 84.8439C122.126 83.8183 123.286 82.493 124.401 81.1445C125.514 79.7913 126.621 78.3551 127.661 76.9426L130.037 79.4032Z" fill="#E4897B"/>
<path d="M131.155 75.5789C131.348 77.8744 127.89 82.9373 127.89 82.9373L123.318 79.167C123.318 79.167 125.601 76.5818 127.075 74.2113C128.896 71.2831 130.943 73.0597 131.155 75.5789Z" fill="#407BFF"/>
<g opacity="0.4">
<path d="M131.155 75.5789C131.348 77.8744 127.89 82.9373 127.89 82.9373L123.318 79.167C123.318 79.167 125.601 76.5818 127.075 74.2113C128.896 71.2831 130.943 73.0597 131.155 75.5789Z" fill="black"/>
</g>
<path d="M112.295 92.11L109.918 92.3415L110.456 94.7318C110.456 94.7318 112.447 94.8781 113.167 93.4037L112.295 92.11Z" fill="#E4897B"/>
<path d="M106.731 93.6759L108.416 95.3864L110.457 95.3127L109.86 93.0346L106.731 93.6759Z" fill="#E4897B"/>
</g>
</svg>
