<svg width="61" height="61" viewBox="0 0 61 61" fill="none" xmlns="http://www.w3.org/2000/svg">
<path opacity="0.21" fill-rule="evenodd" clip-rule="evenodd" d="M0.25 30.2188V37.2188C0.25 49.9213 10.5475 60.2188 23.25 60.2188H30.25H37.25C49.9525 60.2188 60.25 49.9213 60.25 37.2188V30.2188V23.2188C60.25 10.5162 49.9525 0.21875 37.25 0.21875H30.25H23.25C10.5475 0.21875 0.25 10.5162 0.25 23.2188V30.2188Z" fill="#8280FF"/>
<path opacity="0.99" d="M28.4311 35.6023C28.2503 35.6024 28.0712 35.5665 27.9042 35.4966C27.7371 35.4267 27.5854 35.3241 27.4576 35.1948L23.5911 31.2824C23.3406 31.0201 23.202 30.6687 23.2051 30.3041C23.2083 29.9394 23.3529 29.5905 23.6078 29.3327C23.8627 29.0748 24.2076 28.9285 24.5681 28.9254C24.9287 28.9222 25.276 29.0624 25.5353 29.3157L28.4297 32.2448L35.9661 24.6231C36.2264 24.3758 36.5716 24.2407 36.9287 24.2463C37.2857 24.2519 37.6266 24.3978 37.8792 24.6531C38.1318 24.9084 38.2763 25.2532 38.2821 25.6143C38.2879 25.9755 38.1546 26.3248 37.9103 26.5883L29.4018 35.1948C29.144 35.4556 28.7957 35.6022 28.4311 35.6023Z" fill="#C1C0FF" fill-opacity="0.12"/>
<path opacity="0.5" d="M30.75 16C28.0305 16 25.3721 16.8157 23.1109 18.344C20.8497 19.8722 19.0874 22.0444 18.0467 24.5858C17.006 27.1273 16.7337 29.9238 17.2642 32.6217C17.7948 35.3197 19.1043 37.7979 21.0273 39.743C22.9503 41.6881 25.4003 43.0128 28.0675 43.5494C30.7348 44.0861 33.4994 43.8106 36.0119 42.758C38.5244 41.7053 40.6718 39.9226 42.1827 37.6354C43.6936 35.3482 44.5 32.6591 44.5 29.9083C44.4964 26.2207 43.0465 22.6852 40.4687 20.0777C37.8909 17.4702 34.3956 16.0037 30.75 16ZM37.9096 26.5884L29.4011 35.1949C29.1433 35.4556 28.7936 35.6021 28.429 35.6021C28.0644 35.6021 27.7147 35.4556 27.4569 35.1949L23.5904 31.2825C23.3399 31.0202 23.2013 30.6688 23.2045 30.3042C23.2076 29.9395 23.3522 29.5907 23.6071 29.3328C23.8621 29.0749 24.2069 28.9286 24.5675 28.9255C24.928 28.9223 25.2753 29.0625 25.5346 29.3158L28.429 32.2449L35.9654 24.6232C36.2257 24.3759 36.5709 24.2408 36.928 24.2464C37.2851 24.252 37.626 24.3979 37.8786 24.6532C38.1312 24.9086 38.2757 25.2533 38.2815 25.6145C38.2873 25.9756 38.1539 26.3249 37.9096 26.5884Z" fill="#3834FF"/>
</svg>
