<svg width="60" height="60" viewBox="0 0 60 60" fill="none" xmlns="http://www.w3.org/2000/svg">
<path opacity="0.21" fill-rule="evenodd" clip-rule="evenodd" d="M0 30V37C0 49.7025 10.2975 60 23 60H30H37C49.7025 60 60 49.7025 60 37V30V23C60 10.2975 49.7025 0 37 0H30H23C10.2975 0 0 10.2975 0 23V30Z" fill="#8280FF"/>
<path opacity="0.587821" fill-rule="evenodd" clip-rule="evenodd" d="M20.666 23.3333C20.666 26.2789 23.0538 28.6667 25.9993 28.6667C28.9449 28.6667 31.3327 26.2789 31.3327 23.3333C31.3327 20.3878 28.9449 18 25.9993 18C23.0538 18 20.666 20.3878 20.666 23.3333ZM34 28.666C34 30.8752 35.7909 32.666 38 32.666C40.2091 32.666 42 30.8752 42 28.666C42 26.4569 40.2091 24.666 38 24.666C35.7909 24.666 34 26.4569 34 28.666Z" fill="#8280FF"/>
<path fill-rule="evenodd" clip-rule="evenodd" d="M25.9778 31.333C19.6826 31.333 14.5177 34.5684 14.0009 40.9319C13.9727 41.2786 14.6356 41.9997 14.97 41.9997H36.9956C37.9972 41.9997 38.0128 41.1936 37.9972 40.933C37.6065 34.3906 32.3616 31.333 25.9778 31.333ZM37.4681 33.9998C39.1417 36.2281 40.1334 38.9977 40.1335 41.999H45.2759C45.9993 41.999 46.0105 41.3945 45.9993 41.199C45.7202 36.3454 42.0108 34.049 37.4681 33.9998Z" fill="#8280FF"/>
</svg>
