<svg width="61" height="61" viewBox="0 0 61 61" fill="none" xmlns="http://www.w3.org/2000/svg">
<path opacity="0.21" fill-rule="evenodd" clip-rule="evenodd" d="M0.25 30.2188V37.2188C0.25 49.9213 10.5475 60.2188 23.25 60.2188H30.25H37.25C49.9525 60.2188 60.25 49.9213 60.25 37.2188V30.2188V23.2188C60.25 10.5162 49.9525 0.21875 37.25 0.21875H30.25H23.25C10.5475 0.21875 0.25 10.5162 0.25 23.2188V30.2188Z" fill="#D94A4A"/>
<path opacity="0.5" d="M44.5 29.9083C44.5 22.2268 38.3441 16 30.75 16C23.1559 16 17 22.2268 17 29.9083C17 37.5899 23.1559 43.8167 30.75 43.8167C38.3441 43.8167 44.5 37.5899 44.5 29.9083Z" fill="#FD8787"/>
<path d="M30.75 21.9111C31.0235 21.9111 31.2858 22.021 31.4792 22.2167C31.6726 22.4123 31.7812 22.6776 31.7812 22.9543V31.2993C31.7812 31.5759 31.6726 31.8412 31.4792 32.0369C31.2858 32.2325 31.0235 32.3424 30.75 32.3424C30.4765 32.3424 30.2142 32.2325 30.0208 32.0369C29.8274 31.8412 29.7188 31.5759 29.7188 31.2993V22.9543C29.7188 22.6776 29.8274 22.4123 30.0208 22.2167C30.2142 22.021 30.4765 21.9111 30.75 21.9111ZM30.75 36.8626C31.1147 36.8626 31.4644 36.7161 31.7223 36.4552C31.9801 36.1944 32.125 35.8406 32.125 35.4718C32.125 35.1029 31.9801 34.7491 31.7223 34.4883C31.4644 34.2275 31.1147 34.0809 30.75 34.0809C30.3853 34.0809 30.0356 34.2275 29.7777 34.4883C29.5199 34.7491 29.375 35.1029 29.375 35.4718C29.375 35.8406 29.5199 36.1944 29.7777 36.4552C30.0356 36.7161 30.3853 36.8626 30.75 36.8626Z" fill="#F6F6F6"/>
</svg>
