<svg width="61" height="61" viewBox="0 0 61 61" fill="none" xmlns="http://www.w3.org/2000/svg">
<path opacity="0.21" fill-rule="evenodd" clip-rule="evenodd" d="M0.5 30.9688V37.9688C0.5 50.6713 10.7975 60.9688 23.5 60.9688H30.5H37.5C50.2025 60.9688 60.5 50.6713 60.5 37.9688V30.9688V23.9688C60.5 11.2662 50.2025 0.96875 37.5 0.96875H30.5H23.5C10.7975 0.96875 0.5 11.2662 0.5 23.9688V30.9688Z" fill="#4AD991"/>
<path d="M40.6247 29.6431H32.944L34.7218 27.6832C34.9723 27.3973 35.1109 27.0144 35.1078 26.6169C35.1046 26.2195 34.96 25.8393 34.7051 25.5582C34.4501 25.2772 34.1053 25.1178 33.7448 25.1143C33.3842 25.1109 33.0369 25.2636 32.7776 25.5398L28.6526 30.0873C28.3948 30.3715 28.25 30.757 28.25 31.159C28.25 31.5609 28.3948 31.9464 28.6526 32.2307L32.7776 36.7782C33.0369 37.0543 33.3842 37.2071 33.7448 37.2036C34.1053 37.2002 34.4501 37.0407 34.7051 36.7597C34.96 36.4786 35.1046 36.0985 35.1078 35.701C35.1109 35.3036 34.9723 34.9207 34.7218 34.6348L32.944 32.6748H40.6247C40.9894 32.6748 41.3391 32.5151 41.597 32.2308C41.8548 31.9465 41.9997 31.561 41.9997 31.159C41.9997 30.7569 41.8548 30.3714 41.597 30.0871C41.3391 29.8028 40.9894 29.6431 40.6247 29.6431Z" fill="#37A66B"/>
<path opacity="0.5" d="M32.9442 32.6742L34.7221 34.6341C34.8535 34.774 34.9582 34.9412 35.0303 35.1262C35.1023 35.3111 35.1403 35.51 35.1418 35.7113C35.1434 35.9126 35.1086 36.1122 35.0395 36.2985C34.9704 36.4847 34.8683 36.654 34.7392 36.7963C34.6101 36.9386 34.4565 37.0512 34.2876 37.1274C34.1186 37.2036 33.9375 37.242 33.7549 37.2402C33.5724 37.2385 33.3919 37.1967 33.2242 37.1172C33.0564 37.0378 32.9047 36.9223 32.7779 36.7775L28.6529 32.23C28.3951 31.9458 28.2503 31.5603 28.2503 31.1583C28.2503 30.7564 28.3951 30.3709 28.6529 30.0866L32.7779 25.5391C33.0372 25.263 33.3845 25.1102 33.7451 25.1137C34.1056 25.1171 34.4504 25.2766 34.7054 25.5576C34.9603 25.8387 35.1049 26.2188 35.1081 26.6163C35.1112 27.0137 34.9726 27.3966 34.7221 27.6825L32.9442 29.6425H39.25V20.5475C39.2489 19.3418 38.814 18.1858 38.0406 17.3333C37.2673 16.4807 36.2187 16.0012 35.125 16H24.125C23.0313 16.0012 21.9827 16.4807 21.2094 17.3333C20.436 18.1858 20.0011 19.3418 20 20.5475V41.7692C20.0011 42.9749 20.436 44.1308 21.2094 44.9834C21.9827 45.836 23.0313 46.3155 24.125 46.3167H35.125C36.2187 46.3155 37.2673 45.836 38.0406 44.9834C38.814 44.1308 39.2489 42.9749 39.25 41.7692V32.6742H32.9442Z" fill="#72F0AF"/>
</svg>
