<svg width="60" height="60" viewBox="0 0 60 60" fill="none" xmlns="http://www.w3.org/2000/svg">
<path opacity="0.3" fill-rule="evenodd" clip-rule="evenodd" d="M0 30V37C0 49.7025 10.2975 60 23 60H30H37C49.7025 60 60 49.7025 60 37V30V23C60 10.2975 49.7025 0 37 0H30H23C10.2975 0 0 10.2975 0 23V30Z" fill="#FF9066"/>
<path d="M30.5001 31.0811C30.1354 31.0811 29.7857 30.9346 29.5278 30.6738C29.2699 30.4129 29.1251 30.0592 29.1251 29.6903V25.5178C29.1251 25.1489 29.2699 24.7952 29.5278 24.5343C29.7857 24.2735 30.1354 24.127 30.5001 24.127C30.8647 24.127 31.2145 24.2735 31.4723 24.5343C31.7302 24.7952 31.8751 25.1489 31.8751 25.5178V29.6903C31.8751 30.0592 31.7302 30.4129 31.4723 30.6738C31.2145 30.9346 30.8647 31.0811 30.5001 31.0811ZM30.5001 35.2536C30.319 35.2555 30.1394 35.2208 29.9717 35.1515C29.8041 35.0823 29.6517 34.9799 29.5237 34.8504C29.3957 34.7209 29.2944 34.5668 29.226 34.3972C29.1575 34.2276 29.1232 34.046 29.1251 33.8628C29.1301 33.4945 29.2726 33.1418 29.5238 32.8753C29.6546 32.7487 29.8088 32.6494 29.9776 32.5832C30.228 32.4767 30.504 32.4476 30.7707 32.4996C31.0374 32.5516 31.283 32.6823 31.4763 32.8753C31.7276 33.1418 31.87 33.4945 31.8751 33.8628C31.8769 34.046 31.8426 34.2276 31.7741 34.3972C31.7057 34.5668 31.6045 34.7209 31.4764 34.8504C31.3484 34.9799 31.1961 35.0823 31.0284 35.1515C30.8608 35.2208 30.6811 35.2555 30.5001 35.2536Z" fill="#FFC6B1"/>
<path opacity="0.5" d="M30.5 15.7812C26.8979 15.7911 23.4429 17.2274 20.875 19.7827V17.1721C20.875 16.8032 20.7301 16.4494 20.4723 16.1886C20.2144 15.9278 19.8647 15.7813 19.5 15.7812C19.1353 15.7813 18.7856 15.9278 18.5277 16.1886C18.2699 16.4494 18.125 16.8032 18.125 17.1721V23.4308C18.125 23.7997 18.2699 24.1535 18.5277 24.4143C18.7856 24.6751 19.1353 24.8217 19.5 24.8217H25.6875C26.0522 24.8217 26.4019 24.6751 26.6598 24.4143C26.9176 24.1535 27.0625 23.7997 27.0625 23.4308C27.0625 23.062 26.9176 22.7082 26.6598 22.4474C26.4019 22.1865 26.0522 22.04 25.6875 22.04H22.5498C24.0598 20.4224 26.0156 19.3013 28.1633 18.8219C30.3111 18.3425 32.5517 18.5271 34.5945 19.3517C36.6372 20.1763 38.3879 21.6029 39.6192 23.4463C40.8506 25.2897 41.5059 27.4648 41.5 29.6896C41.5 30.0585 41.6449 30.4122 41.9027 30.6731C42.1606 30.9339 42.5103 31.0804 42.875 31.0804C43.2397 31.0804 43.5894 30.9339 43.8473 30.6731C44.1051 30.4122 44.25 30.0585 44.25 29.6896C44.2464 26.002 42.7965 22.4665 40.2187 19.859C37.6409 17.2515 34.1456 15.7849 30.5 15.7812ZM41.5 34.5575H35.3125C34.9478 34.5575 34.5981 34.704 34.3402 34.9649C34.0824 35.2257 33.9375 35.5795 33.9375 35.9483C33.9375 36.3172 34.0824 36.671 34.3402 36.9318C34.5981 37.1926 34.9478 37.3392 35.3125 37.3392H38.4503C36.9402 38.9567 34.9844 40.0779 32.8367 40.5573C30.6889 41.0366 28.4483 40.852 26.4055 40.0274C24.3628 39.2028 22.6122 37.7763 21.3808 35.9329C20.1494 34.0895 19.4942 31.9143 19.5 29.6896C19.5 29.3207 19.3551 28.9669 19.0973 28.7061C18.8394 28.4453 18.4897 28.2987 18.125 28.2987C17.7603 28.2987 17.4106 28.4453 17.1527 28.7061C16.8949 28.9669 16.75 29.3207 16.75 29.6896C16.7466 32.4301 17.5447 35.1105 19.044 37.3932C20.5432 39.676 22.6765 41.4591 25.1754 42.5182C27.6742 43.5773 30.427 43.865 33.0872 43.3451C35.7474 42.8252 38.196 41.521 40.125 39.5965V42.2071C40.125 42.576 40.2699 42.9297 40.5277 43.1906C40.7856 43.4514 41.1353 43.5979 41.5 43.5979C41.8647 43.5979 42.2144 43.4514 42.4723 43.1906C42.7301 42.9297 42.875 42.576 42.875 42.2071V35.9483C42.875 35.5795 42.7301 35.2257 42.4723 34.9649C42.2144 34.704 41.8647 34.5575 41.5 34.5575Z" fill="#FF662E"/>
</svg>
