<svg width="60" height="60" viewBox="0 0 60 60" fill="none" xmlns="http://www.w3.org/2000/svg">
<path opacity="0.3" fill-rule="evenodd" clip-rule="evenodd" d="M0 30V37C0 49.7025 10.2975 60 23 60H30H37C49.7025 60 60 49.7025 60 37V30V23C60 10.2975 49.7025 0 37 0H30H23C10.2975 0 0 10.2975 0 23V30Z" fill="#FF9066"/>
<path opacity="0.78" fill-rule="evenodd" clip-rule="evenodd" d="M28.6319 23.8093C28.6519 23.5488 28.8692 23.3477 29.1304 23.3477H29.5482C29.8051 23.3477 30.0202 23.5423 30.0458 23.7979L30.6674 30.0143L35.0821 32.537C35.2379 32.626 35.3341 32.7917 35.3341 32.9712V33.3597C35.3341 33.6894 35.0206 33.9288 34.7025 33.8421L28.3994 32.123C28.168 32.0599 28.014 31.8414 28.0324 31.6023L28.6319 23.8093Z" fill="#FF9066"/>
<path opacity="0.901274" fill-rule="evenodd" clip-rule="evenodd" d="M22.7224 14.9846C22.4583 14.6698 21.9483 14.7903 21.853 15.19L20.2195 22.0381C20.1419 22.3638 20.3999 22.6723 20.7342 22.6533L27.7789 22.2541C28.1898 22.2308 28.3982 21.7488 28.1337 21.4335L26.332 19.2863C27.4967 18.8884 28.7318 18.6805 30 18.6805C36.2592 18.6805 41.3333 23.7546 41.3333 30.0138C41.3333 36.273 36.2592 41.3472 30 41.3472C23.7408 41.3472 18.6667 36.273 18.6667 30.0138C18.6667 28.9631 18.809 27.9339 19.0864 26.9448L16.5188 26.2246C16.1808 27.4297 16 28.7007 16 30.0138C16 37.7458 22.268 44.0138 30 44.0138C37.732 44.0138 44 37.7458 44 30.0138C44 22.2818 37.732 16.0138 30 16.0138C28.0553 16.0138 26.2031 16.4103 24.52 17.127L22.7224 14.9846Z" fill="#FF9066"/>
</svg>
