<svg width="60" height="60" viewBox="0 0 60 60" fill="none" xmlns="http://www.w3.org/2000/svg">
<path opacity="0.21" fill-rule="evenodd" clip-rule="evenodd" d="M0 30V37C0 49.7025 10.2975 60 23 60H30H37C49.7025 60 60 49.7025 60 37V30V23C60 10.2975 49.7025 0 37 0H30H23C10.2975 0 0 10.2975 0 23V30Z" fill="#4AD991"/>
<path opacity="0.5" d="M31.1875 33.9799H29.8125C29.4478 33.9799 29.0981 33.8202 28.8402 33.5359C28.5824 33.2517 28.4375 32.8661 28.4375 32.4641C28.4375 32.0621 28.5824 31.6765 28.8402 31.3922C29.0981 31.1079 29.4478 30.9482 29.8125 30.9482H31.1875C31.5522 30.9482 31.9019 31.1079 32.1598 31.3922C32.4176 31.6765 32.5625 32.0621 32.5625 32.4641C32.5625 32.8661 32.4176 33.2517 32.1598 33.5359C31.9019 33.8202 31.5522 33.9799 31.1875 33.9799ZM31.1875 40.0432H29.8125C29.4478 40.0432 29.0981 39.8835 28.8402 39.5993C28.5824 39.315 28.4375 38.9294 28.4375 38.5274C28.4375 38.1254 28.5824 37.7398 28.8402 37.4556C29.0981 37.1713 29.4478 37.0116 29.8125 37.0116H31.1875C31.5522 37.0116 31.9019 37.1713 32.1598 37.4556C32.4176 37.7398 32.5625 38.1254 32.5625 38.5274C32.5625 38.9294 32.4176 39.315 32.1598 39.5993C31.9019 39.8835 31.5522 40.0432 31.1875 40.0432ZM24.3125 33.9799H22.9375C22.5728 33.9799 22.2231 33.8202 21.9652 33.5359C21.7074 33.2517 21.5625 32.8661 21.5625 32.4641C21.5625 32.0621 21.7074 31.6765 21.9652 31.3922C22.2231 31.1079 22.5728 30.9482 22.9375 30.9482H24.3125C24.6772 30.9482 25.0269 31.1079 25.2848 31.3922C25.5426 31.6765 25.6875 32.0621 25.6875 32.4641C25.6875 32.8661 25.5426 33.2517 25.2848 33.5359C25.0269 33.8202 24.6772 33.9799 24.3125 33.9799ZM24.3125 40.0432H22.9375C22.5728 40.0432 22.2231 39.8835 21.9652 39.5993C21.7074 39.315 21.5625 38.9294 21.5625 38.5274C21.5625 38.1254 21.7074 37.7398 21.9652 37.4556C22.2231 37.1713 22.5728 37.0116 22.9375 37.0116H24.3125C24.6772 37.0116 25.0269 37.1713 25.2848 37.4556C25.5426 37.7398 25.6875 38.1254 25.6875 38.5274C25.6875 38.9294 25.5426 39.315 25.2848 39.5993C25.0269 39.8835 24.6772 40.0432 24.3125 40.0432ZM38.0625 33.9799H36.6875C36.3228 33.9799 35.9731 33.8202 35.7152 33.5359C35.4574 33.2517 35.3125 32.8661 35.3125 32.4641C35.3125 32.0621 35.4574 31.6765 35.7152 31.3922C35.9731 31.1079 36.3228 30.9482 36.6875 30.9482H38.0625C38.4272 30.9482 38.7769 31.1079 39.0348 31.3922C39.2926 31.6765 39.4375 32.0621 39.4375 32.4641C39.4375 32.8661 39.2926 33.2517 39.0348 33.5359C38.7769 33.8202 38.4272 33.9799 38.0625 33.9799ZM38.0625 40.0432H36.6875C36.3228 40.0432 35.9731 39.8835 35.7152 39.5993C35.4574 39.315 35.3125 38.9294 35.3125 38.5274C35.3125 38.1254 35.4574 37.7398 35.7152 37.4556C35.9731 37.1713 36.3228 37.0116 36.6875 37.0116H38.0625C38.4272 37.0116 38.7769 37.1713 39.0348 37.4556C39.2926 37.7398 39.4375 38.1254 39.4375 38.5274C39.4375 38.9294 39.2926 39.315 39.0348 39.5993C38.7769 39.8835 38.4272 40.0432 38.0625 40.0432Z" fill="white"/>
<path opacity="0.1" d="M44.5 19.5792H40.375V13.5158C40.375 13.1138 40.2301 12.7283 39.9723 12.444C39.7144 12.1597 39.3647 12 39 12H23.875C23.5103 12 23.1606 12.1597 22.9027 12.444C22.6449 12.7283 22.5 13.1138 22.5 13.5158V19.5792H18.375C18.0103 19.5792 17.6606 19.7389 17.4027 20.0231C17.1449 20.3074 17 20.693 17 21.095V42.3167C17 42.7187 17.1449 43.1043 17.4027 43.3885C17.6606 43.6728 18.0103 43.8325 18.375 43.8325H44.5C44.8647 43.8325 45.2144 43.6728 45.4723 43.3885C45.7301 43.1043 45.875 42.7187 45.875 42.3167V21.095C45.875 20.693 45.7301 20.3074 45.4723 20.0231C45.2144 19.7389 44.8647 19.5792 44.5 19.5792ZM25.25 37.7692H23.875C23.5103 37.7692 23.1606 37.6095 22.9027 37.3252C22.6449 37.0409 22.5 36.6554 22.5 36.2533C22.5 35.8513 22.6449 35.4658 22.9027 35.1815C23.1606 34.8972 23.5103 34.7375 23.875 34.7375H25.25C25.6147 34.7375 25.9644 34.8972 26.2223 35.1815C26.4801 35.4658 26.625 35.8513 26.625 36.2533C26.625 36.6554 26.4801 37.0409 26.2223 37.3252C25.9644 37.6095 25.6147 37.7692 25.25 37.7692ZM25.25 31.7058H23.875C23.5103 31.7058 23.1606 31.5461 22.9027 31.2619C22.6449 30.9776 22.5 30.592 22.5 30.19C22.5 29.788 22.6449 29.4024 22.9027 29.1181C23.1606 28.8339 23.5103 28.6742 23.875 28.6742H25.25C25.6147 28.6742 25.9644 28.8339 26.2223 29.1181C26.4801 29.4024 26.625 29.788 26.625 30.19C26.625 30.592 26.4801 30.9776 26.2223 31.2619C25.9644 31.5461 25.6147 31.7058 25.25 31.7058ZM32.125 37.7692H30.75C30.3853 37.7692 30.0356 37.6095 29.7777 37.3252C29.5199 37.0409 29.375 36.6554 29.375 36.2533C29.375 35.8513 29.5199 35.4658 29.7777 35.1815C30.0356 34.8972 30.3853 34.7375 30.75 34.7375H32.125C32.4897 34.7375 32.8394 34.8972 33.0973 35.1815C33.3551 35.4658 33.5 35.8513 33.5 36.2533C33.5 36.6554 33.3551 37.0409 33.0973 37.3252C32.8394 37.6095 32.4897 37.7692 32.125 37.7692ZM32.125 31.7058H30.75C30.3853 31.7058 30.0356 31.5461 29.7777 31.2619C29.5199 30.9776 29.375 30.592 29.375 30.19C29.375 29.788 29.5199 29.4024 29.7777 29.1181C30.0356 28.8339 30.3853 28.6742 30.75 28.6742H32.125C32.4897 28.6742 32.8394 28.8339 33.0973 29.1181C33.3551 29.4024 33.5 29.788 33.5 30.19C33.5 30.592 33.3551 30.9776 33.0973 31.2619C32.8394 31.5461 32.4897 31.7058 32.125 31.7058ZM33.0973 21.5097L32.4098 21.8529L28.6875 25.6425C28.6875 26.0445 32.3829 24.6003 32.125 24.8846C32.125 24.8846 30.4272 22.6108 30.0625 22.6108C29.6978 22.6108 30.7231 25.4828 30.4652 25.1985C30.2074 24.9142 33.5 22.2549 33.5 21.8529L30.0625 23.3688H29.375C29.0103 23.3688 28.6606 23.209 28.4027 22.9248C28.1449 22.6405 30.0625 23.0129 30.0625 22.6108C30.0625 22.2088 29.8046 21.3793 30.0625 21.095C30.3204 20.8107 29.0103 20.3371 29.375 20.3371H30.0625L30.75 19.5792C30.75 19.1771 31.8671 20.3074 32.125 20.0231C32.3829 19.7389 31.4375 18.8212 31.4375 18.8212C31.8022 18.8212 25.25 21.8529 29.7777 24.1267C30.0356 24.4109 32.8125 19.5792 32.8125 19.5792L30.0625 23.3688L34.1875 22.6108L33.5 20.3371C33.5 20.3371 31.8671 22.175 32.125 22.4593C32.3829 22.7435 33.5 23.7246 33.5 24.1267C33.5 24.5287 34.7301 22.6405 34.4723 22.9248C34.2144 23.209 33.7848 19.9939 33.0973 21.5097ZM39 37.7692H37.625C37.2603 37.7692 36.9106 37.6095 36.6527 37.3252C36.3949 37.0409 36.25 36.6554 36.25 36.2533C36.25 35.8513 36.3949 35.4658 36.6527 35.1815C36.9106 34.8972 37.2603 34.7375 37.625 34.7375H39C39.3647 34.7375 39.7144 34.8972 39.9723 35.1815C40.2301 35.4658 40.375 35.8513 40.375 36.2533C40.375 36.6554 40.2301 37.0409 39.9723 37.3252C39.7144 37.6095 39.3647 37.7692 39 37.7692ZM39 31.7058H37.625C37.2603 31.7058 36.9106 31.5461 36.6527 31.2619C36.3949 30.9776 36.25 30.592 36.25 30.19C36.25 29.788 36.3949 29.4024 36.6527 29.1181C36.9106 28.8339 37.2603 28.6742 37.625 28.6742H39C39.3647 28.6742 39.7144 28.8339 39.9723 29.1181C40.2301 29.4024 40.375 29.788 40.375 30.19C40.375 30.592 40.2301 30.9776 39.9723 31.2619C39.7144 31.5461 39.3647 31.7058 39 31.7058Z" fill="#4AD991"/>
</svg>
