<svg width="60" height="60" viewBox="0 0 60 60" fill="none" xmlns="http://www.w3.org/2000/svg">
<path opacity="0.21" fill-rule="evenodd" clip-rule="evenodd" d="M0 30V37C0 49.7025 10.2975 60 23 60H30H37C49.7025 60 60 49.7025 60 37V30V23C60 10.2975 49.7025 0 37 0H30H23C10.2975 0 0 10.2975 0 23V30Z" fill="#FEC53D"/>
<path opacity="0.25" d="M22.25 28.6743C21.2982 28.6743 20.3677 28.3632 19.5763 27.7802C18.7849 27.1972 18.1681 26.3686 17.8038 25.3992C17.4396 24.4298 17.3443 23.363 17.53 22.3339C17.7157 21.3047 18.174 20.3594 18.8471 19.6174C19.5201 18.8754 20.3776 18.3701 21.3111 18.1654C22.2447 17.9607 23.2123 18.0658 24.0917 18.4673C24.971 18.8689 25.7226 19.5489 26.2515 20.4214C26.7803 21.2938 27.0625 22.3196 27.0625 23.3689C27.061 24.7755 26.5535 26.124 25.6513 27.1186C24.7491 28.1132 23.5259 28.6727 22.25 28.6743Z" fill="#FEDB89"/>
<path opacity="0.5" d="M25.88 26.8129C25.4345 27.3959 24.8787 27.8646 24.2517 28.1861C23.6247 28.5076 22.9415 28.6741 22.25 28.6741C21.5585 28.6741 20.8753 28.5076 20.2483 28.1861C19.6213 27.8646 19.0655 27.3959 18.62 26.8129C17.6301 27.4897 16.8128 28.4331 16.2451 29.5544C15.6774 30.6756 15.378 31.9377 15.375 33.2218C15.375 33.6238 15.5199 34.0094 15.7777 34.2937C16.0356 34.5779 16.3853 34.7376 16.75 34.7376H27.75C28.1147 34.7376 28.4644 34.5779 28.7223 34.2937C28.9801 34.0094 29.125 33.6238 29.125 33.2218C29.122 31.9377 28.8226 30.6756 28.2549 29.5544C27.6872 28.4331 26.8699 27.4897 25.88 26.8129ZM38.75 28.6743C37.7982 28.6743 36.8677 28.3632 36.0763 27.7802C35.2849 27.1972 34.6681 26.3686 34.3038 25.3992C33.9396 24.4298 33.8443 23.363 34.03 22.3339C34.2157 21.3047 34.674 20.3594 35.347 19.6174C36.0201 18.8754 36.8776 18.3701 37.8111 18.1654C38.7447 17.9607 39.7123 18.0658 40.5917 18.4673C41.471 18.8689 42.2226 19.5489 42.7514 20.4214C43.2803 21.2938 43.5625 22.3196 43.5625 23.3689C43.561 24.7755 43.0535 26.124 42.1513 27.1186C41.2491 28.1132 40.0259 28.6727 38.75 28.6743Z" fill="#FEC53D"/>
<path opacity="0.7" d="M42.38 26.8125C41.9345 27.3955 41.3787 27.8642 40.7517 28.1857C40.1247 28.5072 39.4415 28.6738 38.75 28.6738C38.0585 28.6738 37.3753 28.5072 36.7483 28.1857C36.1213 27.8642 35.5655 27.3955 35.12 26.8125C34.1301 27.4893 33.3128 28.4327 32.7451 29.554C32.1774 30.6752 31.878 31.9374 31.875 33.2214C31.875 33.6235 32.0199 34.009 32.2777 34.2933C32.5356 34.5776 32.8853 34.7373 33.25 34.7373H44.25C44.6147 34.7373 44.9644 34.5776 45.2223 34.2933C45.4801 34.009 45.625 33.6235 45.625 33.2214C45.622 31.9374 45.3226 30.6752 44.7549 29.554C44.1872 28.4327 43.3699 27.4893 42.38 26.8125Z" fill="#FEC53D"/>
<path d="M43.1593 39.7287L40.4093 36.697C40.15 36.4209 39.8027 36.2681 39.4422 36.2715C39.0816 36.275 38.7368 36.4344 38.4818 36.7155C38.2269 36.9965 38.0823 37.3767 38.0792 37.7741C38.076 38.1716 38.2146 38.5545 38.4651 38.8404L38.868 39.2845H35.3122C34.9475 39.2845 34.5978 39.4442 34.3399 39.7285C34.0821 40.0128 33.9372 40.3983 33.9372 40.8004C33.9372 41.2024 34.0821 41.5879 34.3399 41.8722C34.5978 42.1565 34.9475 42.3162 35.3122 42.3162H38.868L38.4651 42.7603C38.3338 42.9002 38.229 43.0674 38.1569 43.2524C38.0849 43.4373 38.0469 43.6362 38.0454 43.8375C38.0438 44.0388 38.0786 44.2384 38.1477 44.4246C38.2168 44.6109 38.3189 44.7802 38.448 44.9225C38.5771 45.0648 38.7307 45.1774 38.8996 45.2536C39.0686 45.3298 39.2497 45.3682 39.4323 45.3664C39.6148 45.3647 39.7953 45.3229 39.963 45.2434C40.1308 45.164 40.2825 45.0485 40.4093 44.9037L43.1593 41.8721C43.4171 41.5878 43.5619 41.2023 43.5619 40.8004C43.5619 40.3984 43.4171 40.0129 43.1593 39.7287ZM25.6872 39.2845H22.1315L22.5343 38.8404C22.7848 38.5545 22.9234 38.1716 22.9203 37.7741C22.9171 37.3767 22.7725 36.9965 22.5176 36.7155C22.2626 36.4344 21.9178 36.275 21.5573 36.2715C21.1967 36.2681 20.8494 36.4209 20.5901 36.697L17.8401 39.7287C17.5823 40.0129 17.4375 40.3984 17.4375 40.8004C17.4375 41.2023 17.5823 41.5878 17.8401 41.8721L20.5901 44.9037C20.8494 45.1798 21.1967 45.3326 21.5573 45.3292C21.9178 45.3257 22.2626 45.1663 22.5176 44.8853C22.7725 44.6042 22.9171 44.224 22.9203 43.8266C22.9234 43.4291 22.7848 43.0462 22.5343 42.7603L22.1315 42.3162H25.6872C26.0519 42.3162 26.4016 42.1565 26.6595 41.8722C26.9173 41.5879 27.0622 41.2024 27.0622 40.8004C27.0622 40.3983 26.9173 40.0128 26.6595 39.7285C26.4016 39.4442 26.0519 39.2845 25.6872 39.2845Z" fill="#FEC53D"/>
</svg>
