<svg width="61" height="61" viewBox="0 0 61 61" fill="none" xmlns="http://www.w3.org/2000/svg">
<path opacity="0.21" fill-rule="evenodd" clip-rule="evenodd" d="M0.875 30.4824V37.4824C0.875 50.185 11.1725 60.4824 23.875 60.4824H30.875H37.875C50.5775 60.4824 60.875 50.185 60.875 37.4824V30.4824V23.4824C60.875 10.7799 50.5775 0.482422 37.875 0.482422H30.875H23.875C11.1725 0.482422 0.875 10.7799 0.875 23.4824V30.4824Z" fill="#FEC53D"/>
<path opacity="0.5" d="M39.625 25H32.75V32.7692L34.5279 30.9708C34.7872 30.7175 35.1345 30.5773 35.4951 30.5805C35.8556 30.5836 36.2004 30.7299 36.4554 30.9878C36.7103 31.2457 36.8549 31.5945 36.8581 31.9592C36.8612 32.3238 36.7226 32.6752 36.4721 32.9375L32.3471 37.11C32.0893 37.3707 31.7396 37.5172 31.375 37.5172C31.0104 37.5172 30.6607 37.3707 30.4029 37.11L26.2779 32.9375C26.0274 32.6752 25.8888 32.3238 25.8919 31.9592C25.8951 31.5945 26.0397 31.2457 26.2946 30.9878C26.5496 30.7299 26.8944 30.5836 27.2549 30.5805C27.6155 30.5773 27.9628 30.7175 28.2221 30.9708L30 32.7692V25H23.125C22.0313 25.0011 20.9827 25.4411 20.2094 26.2233C19.436 27.0056 19.0011 28.0662 19 29.1725V38.9083C19.0011 40.0146 19.436 41.0753 20.2094 41.8575C20.9827 42.6398 22.0313 43.0797 23.125 43.0808H39.625C40.7187 43.0797 41.7673 42.6398 42.5406 41.8575C43.314 41.0753 43.7489 40.0146 43.75 38.9083V29.1725C43.7489 28.0662 43.314 27.0056 42.5406 26.2233C41.7673 25.4411 40.7187 25.0011 39.625 25Z" fill="#FFDDA8"/>
</svg>
