<svg width="74" height="74" viewBox="0 0 74 74" fill="none" xmlns="http://www.w3.org/2000/svg">
<path d="M36.998 41.0084C36.5972 41.0084 36.1963 40.9159 35.8263 40.7001L8.60038 24.9443C7.49038 24.2968 7.12031 22.8783 7.76781 21.7683C8.41531 20.6583 9.80281 20.2883 10.9436 20.9358L36.998 36.0134L62.8977 21.0284C64.0077 20.3809 65.426 20.7818 66.0735 21.8609C66.721 22.9709 66.3205 24.3892 65.2413 25.0367L38.2005 40.7001C37.7997 40.8851 37.3988 41.0084 36.998 41.0084Z" fill="#3749A6"/>
<path d="M37 68.9424C35.7358 68.9424 34.6875 67.8941 34.6875 66.6299V38.6641C34.6875 37.3999 35.7358 36.3516 37 36.3516C38.2642 36.3516 39.3125 37.3999 39.3125 38.6641V66.6299C39.3125 67.8941 38.2642 68.9424 37 68.9424Z" fill="#3749A6"/>
<path d="M36.9976 70.1466C34.1917 70.1466 31.5092 69.4991 29.4742 68.3583L13.0092 59.2319C8.53841 56.7653 5.02344 50.8141 5.02344 45.6958V28.2442C5.02344 23.1258 8.53841 17.206 13.0092 14.7085L29.4742 5.58172C33.6676 3.23839 40.2659 3.23839 44.4901 5.58172L60.9551 14.7085C65.4259 17.1751 68.9409 23.1258 68.9409 28.2442V39.5291C68.9409 40.7933 67.8926 41.8416 66.6284 41.8416C65.3642 41.8416 64.3159 40.7933 64.3159 39.5291V28.2442C64.3159 24.8525 61.6951 20.4126 58.7351 18.7785L42.2701 9.65175C39.4642 8.07925 34.5617 8.07925 31.7559 9.65175L15.2909 18.7785C12.3 20.4435 9.71007 24.8525 9.71007 28.2442V45.6958C9.71007 49.0875 12.3309 53.5278 15.2909 55.1619L31.7559 64.2883C34.4692 65.7991 39.5876 65.7991 42.2701 64.2883C43.3801 63.6716 44.7984 64.0728 45.4151 65.1828C46.0317 66.2928 45.6309 67.7108 44.5209 68.3275C42.4859 69.4991 39.8034 70.1466 36.9976 70.1466Z" fill="#3749A6"/>
<path d="M59.2007 68.2958C52.479 68.2958 47.0215 62.8383 47.0215 56.1167C47.0215 49.395 52.479 43.9375 59.2007 43.9375C65.9223 43.9375 71.3798 49.395 71.3798 56.1167C71.3798 62.8383 65.9223 68.2958 59.2007 68.2958ZM59.2007 48.5625C55.0382 48.5625 51.6465 51.9542 51.6465 56.1167C51.6465 60.2792 55.0382 63.6708 59.2007 63.6708C63.3631 63.6708 66.7548 60.2792 66.7548 56.1167C66.7548 51.9542 63.3631 48.5625 59.2007 48.5625Z" fill="#3749A6"/>
<path d="M70.9155 70.1462C70.3296 70.1462 69.7438 69.9304 69.2813 69.4679L66.198 66.3846C65.3038 65.4904 65.3038 64.0101 66.198 63.1159C67.0921 62.2218 68.5721 62.2218 69.4663 63.1159L72.5496 66.1993C73.4438 67.0934 73.4438 68.5737 72.5496 69.4679C72.0871 69.9304 71.5013 70.1462 70.9155 70.1462Z" fill="#3749A6"/>
</svg>
