<svg width="74" height="74" viewBox="0 0 74 74" fill="none" xmlns="http://www.w3.org/2000/svg">
<path d="M27.7531 54.7291C27.4139 54.7291 27.0439 54.6366 26.7356 54.4825C24.3614 53.28 22.3264 51.4916 20.8464 49.2716C19.6131 47.4216 19.6131 45.0475 20.8464 43.1975C22.3264 40.9775 24.3614 39.1891 26.7356 38.0175C27.8764 37.4316 29.2639 37.925 29.8497 39.0658C30.4356 40.2066 29.9731 41.5941 28.8014 42.18C27.1364 43.0125 25.7181 44.2766 24.7006 45.8183C24.5156 46.0958 24.5156 46.4658 24.7006 46.7741C25.7181 48.3158 27.1364 49.58 28.8014 50.4125C29.9422 50.9983 30.4047 52.3858 29.8497 53.5266C29.4181 54.2666 28.5856 54.7291 27.7531 54.7291Z" fill="white"/>
<path d="M46.895 54.7304C46.0317 54.7304 45.23 54.2679 44.8292 53.4663C44.2433 52.3254 44.7058 50.9379 45.8775 50.3521C47.5425 49.5196 48.9608 48.2554 49.9783 46.7138C50.1633 46.4363 50.1633 46.0663 49.9783 45.7579C48.9608 44.2163 47.5425 42.9521 45.8775 42.1196C44.7367 41.5338 44.2742 40.1463 44.8292 39.0054C45.415 37.8646 46.8025 37.4021 47.9433 37.9571C50.3175 39.1596 52.3525 40.9479 53.8325 43.1679C55.0658 45.0179 55.0658 47.3921 53.8325 49.2421C52.3525 51.4621 50.3175 53.2504 47.9433 54.4221C47.5733 54.6379 47.2342 54.7304 46.895 54.7304Z" fill="white"/>
<path d="M46.2498 70.1471H27.7498C11.0073 70.1471 3.854 62.9938 3.854 46.2513V27.7513C3.854 11.0088 11.0073 3.85547 27.7498 3.85547H46.2498C62.9923 3.85547 70.1457 11.0088 70.1457 27.7513V46.2513C70.1457 62.9938 62.9923 70.1471 46.2498 70.1471ZM27.7498 8.48047C13.5357 8.48047 8.479 13.5371 8.479 27.7513V46.2513C8.479 60.4655 13.5357 65.5221 27.7498 65.5221H46.2498C60.464 65.5221 65.5207 60.4655 65.5207 46.2513V27.7513C65.5207 13.5371 60.464 8.48047 46.2498 8.48047H27.7498Z" fill="white"/>
<path d="M46.2498 70.1471H27.7498C11.0073 70.1471 3.854 62.9938 3.854 46.2513V27.7513C3.854 11.0088 11.0073 3.85547 27.7498 3.85547H46.2498C62.9923 3.85547 70.1457 11.0088 70.1457 27.7513V46.2513C70.1457 62.9938 62.9923 70.1471 46.2498 70.1471ZM27.7498 8.48047C13.5357 8.48047 8.479 13.5371 8.479 27.7513V46.2513C8.479 60.4655 13.5357 65.5221 27.7498 65.5221H46.2498C60.464 65.5221 65.5207 60.4655 65.5207 46.2513V27.7513C65.5207 13.5371 60.464 8.48047 46.2498 8.48047H27.7498Z" fill="white"/>
<path d="M6.87744 27.0113C5.61327 27.0113 4.56494 25.963 4.56494 24.6988C4.56494 23.4346 5.58244 22.3863 6.87744 22.3863L66.1392 22.3555C67.4034 22.3555 68.4517 23.4038 68.4517 24.668C68.4517 25.9321 67.4342 26.9805 66.1392 26.9805L6.87744 27.0113Z" fill="white"/>
</svg>
